<svg width="112" height="54" viewBox="0 0 112 54" fill="none" xmlns="http://www.w3.org/2000/svg">
<path d="M15.0797 11.5996C15.7413 11.6135 16.1593 11.6659 16.8689 11.7555C19.3127 12.0639 20.8267 14.6807 18.0704 15.9871C17.4246 16.2932 16.9274 14.9341 16.2811 14.6096C15.0938 14.0133 13.605 14.4666 12.3833 14.7733C10.4394 15.4191 7.83494 16.6076 6.77078 18.4184C5.86111 20.1976 8.22652 21.3583 9.33742 22.0842C11.3447 23.3958 14.8574 24.9626 15.6082 27.3666C16.455 30.0778 13.8513 32.7996 11.6807 33.9683C9.529 35.1269 7.2042 35.8585 4.72822 35.7558C3.45955 35.6908 2.70805 35.5209 1.57012 34.9254C1.4149 34.8206 1.26588 34.7069 1.12384 34.5848C0.474757 34.0284 0.0737118 33.2367 0.00922098 32.3843C-0.113364 30.7657 0.996688 28.8137 2.71901 28.5881C3.23148 28.5209 3.96986 28.9528 3.73252 29.5145C3.43709 30.2136 2.71007 30.7068 2.69023 31.5695C2.66033 32.8694 4.30602 33.0746 5.28396 33.0845C7.65583 33.103 10.4206 32.2653 12.1821 30.5902C15.0295 27.8334 10.0849 25.7483 8.20485 24.5661C6.4636 23.547 3.96301 21.9769 3.8995 19.682C3.80335 16.2077 7.86568 13.7 10.7156 12.5637C12.1819 11.9791 13.5376 11.6694 15.0797 11.5996Z" fill="#C6161D"/>
<path d="M103.11 20.584C103.953 20.6731 104.175 20.9621 104.549 21.6748C104.504 22.3133 104.343 22.839 104.165 23.4453C104.898 22.6547 105.651 22.0151 106.661 21.6162C108.297 20.9699 110.194 21.5298 110.816 23.29C111.438 25.0508 110.817 27.1006 110.059 28.7246C109.047 30.8905 107.294 33.0514 104.99 33.9053C103.749 34.3472 102.906 34.1321 101.768 33.5918C101.641 34.1858 101.479 34.7967 101.332 35.3877C100.74 37.2485 100.416 39.2734 99.7871 41.1318C99.3615 42.3886 97.9853 42.7384 97.3671 41.457C97.2432 41.1988 97.3803 40.7812 97.4208 40.5137C98.665 35.1694 100.088 29.8631 101.253 24.501C101.485 23.4334 101.676 22.2951 102.071 21.29C102.23 20.8866 102.765 20.6826 103.11 20.584ZM107.628 23.8516C106.251 24.1393 104.937 25.5503 104.248 26.7119C103.64 27.7368 101.319 31.3321 103.517 31.8096C106.752 31.5265 110.195 24.2819 107.628 23.8516Z" fill="#C6161D"/>
<path d="M24.5 20.8446C26.3845 20.6551 26.972 21.4211 27.1905 23.0937C27.2262 23.3676 27.7568 23.3634 28.0498 23.5116C28.1439 23.6185 28.2661 23.7784 28.2198 23.9286C27.5165 26.2102 26.4449 28.4355 26.2188 30.8388C26.1967 31.0747 26.2326 31.7724 26.4463 31.8944C27.2884 32.3751 27.9481 30.2743 28.8711 31.0741C29.2053 31.8892 28.4672 32.928 27.8721 33.4579C26.976 34.2557 25.5296 34.9175 24.6153 33.7421C23.9352 32.8677 23.9482 31.6934 24.0479 30.6444C24.0617 30.4995 24.0828 30.4928 24.0567 30.3339L23.9317 30.4032C22.6769 31.8625 21.1517 33.8358 19.2315 34.3818C17.8754 34.7672 16.4737 34.0827 16.21 32.6239C15.8102 30.4123 16.9569 28.0048 18.1592 26.2069C19.6223 24.0192 21.8339 21.4011 24.5 20.8446ZM24.2666 23.4403C21.68 24.4385 19.0968 28.1981 18.5245 30.8212C18.4396 31.2101 18.3446 31.7165 18.6983 31.9872C18.9981 32.0667 19.1002 32.0481 19.3877 31.914C21.6047 30.5065 24.3158 27.041 25.2481 24.5927C25.5066 23.9135 24.9757 23.3778 24.2666 23.4403Z" fill="#C6161D"/>
<path d="M82.4328 11.9084C83.3284 11.8137 84.5274 12.3989 84.203 13.4229C83.6404 15.2003 82.908 16.9649 82.2409 18.712C81.2429 21.3154 80.3127 23.9441 79.4498 26.5954C80.6913 24.7632 82.7513 21.7273 85.1293 21.3951C85.549 21.337 86.329 21.4989 86.6195 21.843C88.4197 23.9704 86.1476 27.4535 85.8447 29.8474C85.7553 30.5545 85.3584 31.4339 85.985 31.9567C86.6854 32.1639 86.9197 31.1871 87.8506 31.0726C88.8943 31.3897 87.812 33.0487 87.2585 33.4931C85.938 34.5539 84.314 34.8074 83.4021 33.0932C82.3447 30.2525 84.8884 25.9748 84.4713 24.4371L84.3649 24.3768C82.784 24.9659 79.6097 29.6425 78.7598 31.1993C78.1502 32.1686 77.688 33.353 76.9256 34.2005C76.6469 34.6531 75.44 34.2728 75.3486 33.9235C75.0771 32.8881 75.9498 30.1712 76.2246 29.2124C77.8669 23.4776 79.705 17.8024 82.0079 12.3067C82.0751 12.1456 82.2912 11.9983 82.4328 11.9084Z" fill="#C6161D"/>
<path d="M36.4275 11.8401C37.0381 11.7845 37.7162 11.9081 37.9733 12.5105C38.2678 13.2003 37.407 14.9434 37.1384 15.6206C36.7058 16.7092 36.2792 17.8002 35.8584 18.8935C34.823 21.5773 33.9785 24.0833 33.0181 26.7709C33.8985 25.4017 34.8071 24.46 35.8055 23.2734C36.7515 22.1493 39.4484 20.3148 40.6391 21.9372C42.2669 24.155 39.2541 28.6282 39.2577 31.1761C39.2581 31.4182 39.3239 31.7068 39.5203 31.8758C40.3423 32.4704 40.8838 30.2907 41.7765 31.1793C41.9062 31.3085 41.9902 31.705 41.9367 31.8844C41.341 33.8802 38.6163 35.454 37.1416 33.2327C35.8142 30.3074 38.9369 25.3849 38.2143 24.3508C36.9693 24.1873 33.2602 29.8872 32.6037 30.9644C32.2059 31.617 31.1649 33.8638 30.6452 34.1841C30.3806 34.3471 29.9847 34.3616 29.6954 34.2669C29.4276 34.1792 29.1641 33.9833 29.0483 33.7199C28.5993 32.698 32.4166 21.0437 33.0622 19.2846C33.6136 17.7849 34.1845 16.2926 34.7748 14.8078C35.1073 13.9645 35.4632 12.9502 35.9421 12.1812C36.0476 12.0118 36.2489 11.9228 36.4275 11.8401Z" fill="#C6161D"/>
<path d="M55.4384 21.0483C57.1412 20.942 57.9232 21.5873 58.0341 23.2944C58.401 23.3746 59.285 23.547 59.1201 24.1225C58.7539 25.401 56.5403 30.8906 57.5898 31.8813C58.4631 32.1261 59.3181 30.2115 60.0478 30.8647C60.7618 31.5034 59.6972 32.77 59.1972 33.2944C58.3636 34.1689 56.8227 34.7716 55.8457 33.7114C55.0406 32.7907 55.0756 31.4315 55.1435 30.2797C54.9999 30.3803 54.4525 31.0427 54.3037 31.2114C53.1912 32.4704 51.9442 33.9578 50.2295 34.3325C49.6881 34.4681 48.8075 34.459 48.3564 34.0942C45.7932 32.0201 48.1949 27.5943 49.6298 25.6254C51.0533 23.6724 53.0951 21.4454 55.4384 21.0483ZM55.3369 23.5141C52.8726 24.1978 49.3262 28.9765 49.5966 31.6254C49.6287 31.9386 50.0768 32.0676 50.3603 31.9848C52.6435 30.6 55.2101 27.2221 56.1181 24.7416C56.3361 24.1467 56.0137 23.5168 55.3369 23.5141Z" fill="#C6161D"/>
<path d="M94.9405 21.1098C95.5761 21.0826 96.4583 21.292 97.0001 21.6069C99.9772 23.3377 99.0573 27.717 97.586 30.1166C96.4 32.0504 95.0206 33.6873 92.8438 34.2807C90.2949 34.6561 89.0106 33.1062 88.7129 30.6616C88.3014 27.2713 91.367 21.6742 94.9405 21.1098ZM95.0645 23.5766C93.4514 24.243 94.4859 25.3881 92.751 25.4809C91.9273 26.8953 91.197 28.2449 91.0723 29.9145C90.9967 30.9345 91.2056 32.2712 92.5684 31.9721C95.6662 30.6698 98.4312 23.4281 95.0645 23.5766Z" fill="#C6161D"/>
<path d="M72.3117 20.3417C73.5741 20.1694 75.0526 20.472 75.7477 21.6288C76.2849 22.3731 75.8659 23.7184 75.0317 24.1151C73.1844 24.9936 73.6015 23.1289 73.4449 22.8317C72.4357 22.0347 69.7647 23.0667 69.6981 24.4484C69.6785 24.9472 70.0747 25.3621 70.4076 25.6907C71.7686 27.0344 74.0284 28.3146 73.967 30.4808C73.9383 31.4986 73.2451 32.4982 72.5043 33.1371C71.1811 34.2785 69.499 34.5261 67.811 34.403C66.92 34.2731 66.2967 34.1486 65.5401 33.6042C64.0362 32.5211 64.0865 29.9916 66.1955 29.7417C66.5219 29.703 66.7079 29.9691 66.7497 30.2711C66.8123 30.8609 66.8241 31.2887 67.2445 31.7111C67.9755 32.4457 70.7627 31.9558 71.217 31.0679C72.3496 28.8516 67.1531 27.4227 67.2229 24.9414C67.2549 23.7847 67.3182 23.3019 68.0375 22.3869C69.1126 21.0777 70.7229 20.5061 72.3117 20.3417Z" fill="#C6161D"/>
<path d="M99.6557 5.96148C99.0565 6.47198 98.4527 6.9845 97.8868 7.52411C97.1407 8.23638 95.3555 10.3092 94.4234 10.4674L94.3516 10.3934C94.4292 10.024 94.9364 9.0432 94.9358 8.87974C94.9325 6.44026 95.1198 4.7053 97.3803 3.26294C99.0161 2.21923 101.139 1.78933 102.952 1.10544C103.852 0.774004 104.696 0.338484 105.579 0C105.224 1.052 104.899 2.11404 104.605 3.18496C103.97 5.51885 103.509 8.25308 101.125 9.45477C99.7027 10.172 98.0774 10.0681 96.5846 9.63397C97.2543 8.62491 98.7745 6.85392 99.7386 6.09826L99.6557 5.96148Z" fill="#007A55"/>
<path d="M101.103 4.78125C100.688 5.27387 100.233 5.67552 99.747 6.09649L99.6641 5.95971C100.181 5.49855 100.549 5.19419 101.103 4.78125Z" fill="#924E0E"/>
<path d="M49.0515 11.7763C49.1835 11.7724 49.3157 11.7809 49.4461 11.802C51.4442 12.1267 50.0931 14.5268 49.6621 15.6002C49.2719 16.5802 48.8883 17.5627 48.5111 18.5478C47.2258 21.9011 46.0484 25.4558 45.2038 28.9499C45.1074 29.5946 44.6219 31.2914 44.8931 31.8555C45.3988 32.9075 46.277 33.5903 44.6534 34.4769C44.2478 34.5689 43.8875 34.5872 43.5025 34.4042C43.0406 34.1845 42.7343 33.7728 42.5751 33.2946C41.5292 30.1518 46.4133 15.9964 48.0313 12.718C48.2869 12.2001 48.4925 11.9622 49.0515 11.7763Z" fill="#C6161D"/>
<path d="M99.0598 10.9415C100.57 10.8004 102.735 11.5412 104.264 11.831C105.209 12.0101 105.682 12.0413 106.638 12.097C105.787 12.9819 104.966 13.8859 104.104 14.7681C102.747 16.1563 101.295 17.25 99.2654 17.2589C98.0735 17.2642 96.834 16.7427 96.0317 15.8595C95.6845 15.4774 95.4345 15.0949 95.0552 14.7135L95.0011 14.6601C93.6349 14.7373 93.1427 15.0969 92.1068 15.9178C91.5676 16.3783 89.5206 18.0977 88.9182 18.1806L88.8398 18.1139C88.8594 17.9723 88.9613 17.7727 89.0631 17.6765C90.4071 16.4141 91.4084 14.7976 92.7034 13.5138C93.5233 12.7009 94.4945 11.9435 95.3764 11.2085C94.6878 12.2761 94.2589 13.2967 93.6055 14.3643L95.1101 14.0813C95.6747 12.1226 97.0637 11.1476 99.0598 10.9415Z" fill="#007A55"/>
<path d="M71.2088 46.166L72.5502 46.198L71.857 47.5821C71.2545 48.9133 70.3701 50.5571 69.7075 51.9046L68.5711 51.9184C68.3844 50.9291 68.2839 49.6514 68.1906 48.6464C67.6357 49.7205 67.1031 50.8057 66.592 51.9014L65.4295 51.9131L64.7617 46.1732L66.0659 46.1882C66.1716 47.3178 66.3864 48.7443 66.4014 49.8406L68.0646 46.4969L69.0117 46.506C69.1984 47.6043 69.3381 48.7267 69.4954 49.8321C70.0483 48.6014 70.6194 47.3798 71.2088 46.166Z" fill="#C6161D"/>
<path d="M40.6221 47.6828C42.7055 47.4586 42.9571 49.2882 42.3008 50.7688C41.7156 52.0879 40.373 52.2387 39.2051 51.6809C39.1501 52.1351 38.9866 52.8312 38.8926 53.2971C38.8597 53.5528 38.8734 53.6691 38.7168 53.8576C38.3837 54.0461 37.9385 53.9774 37.5312 53.969C37.8822 51.9343 38.3561 49.7907 38.748 47.7483L39.2803 47.7356C40.0606 47.7155 39.5049 48.3072 40.6221 47.6828ZM40.416 48.6486C39.4296 49.2223 38.9302 51.0196 40.3291 51.0783C41.4805 50.6332 41.947 48.6741 40.416 48.6486Z" fill="#C6161D"/>
<path d="M73.6614 47.6734C74.5354 47.6101 74.4482 47.6741 75.2249 48.0748L75.3353 47.8209C75.5593 47.7408 76.1942 47.7776 76.4632 47.7828C76.1813 49.1523 75.9169 50.5259 75.6683 51.902C75.323 51.9098 75.0084 51.9252 74.6644 51.8893L74.5696 51.6686C74.4012 51.5987 73.995 51.8409 73.7933 51.9068C71.8182 52.5581 71.3888 50.3263 72.1185 48.9781C72.5147 48.246 72.8919 47.9195 73.6614 47.6734ZM73.971 48.649C73.2506 48.9742 72.7765 49.9476 73.1341 50.651C73.2281 50.8382 73.3989 50.9754 73.6019 51.027C73.7115 51.0557 73.8158 51.0494 73.928 51.0475C74.9972 50.4125 75.4501 48.6027 73.971 48.649Z" fill="#C6161D"/>
<path d="M35.2093 47.6845C38.4629 47.3589 38.2651 51.0098 35.7669 51.9736C35.2942 52.0454 34.8245 52.07 34.3685 51.8945C33.9433 51.732 33.6052 51.3984 33.4369 50.9756C32.8534 49.5237 33.8393 48.1695 35.2093 47.6845ZM35.3949 48.6562C34.3594 49.2904 34.0528 51.0941 35.4798 51.0429C36.1079 50.6638 36.6586 49.6842 36.2611 49.0049C36.156 48.83 35.9818 48.7058 35.7816 48.664C35.6658 48.6393 35.5141 48.649 35.3949 48.6562Z" fill="#C6161D"/>
<path d="M51.3467 47.6819C54.5188 47.3741 54.3168 51.14 51.7803 51.9661C49.0321 52.5029 48.7503 49.3309 50.5196 48.0257C50.7201 47.8775 51.1006 47.7635 51.3467 47.6819ZM51.4493 48.6477C50.4524 49.2894 50.1708 51.2628 51.6514 51.0032C52.609 50.3526 52.9702 48.5609 51.4493 48.6477Z" fill="#007A55"/>
<path d="M26.0877 46.0602C26.9732 46.0034 27.5123 46.1548 28.2428 46.6285C28.0651 46.9463 27.8669 47.2739 27.6826 47.5898C27.1022 47.24 26.1131 46.7591 25.4867 47.4116C25.3707 47.533 25.405 47.6465 25.4197 47.7979C25.7814 48.395 26.5702 48.4662 27.1106 48.8727C27.9325 49.4913 28.0455 50.4108 27.4003 51.2108C26.8805 51.8549 26.2289 51.9502 25.4681 52.0252C24.4713 52.0102 24.0433 51.834 23.25 51.2709L23.9533 50.3031C24.6076 50.8408 25.6257 51.2108 26.3928 50.6712C26.9001 49.7817 25.27 49.4104 24.7284 49.0946C23.8509 48.5836 23.9604 47.5689 24.4338 46.8119C24.7539 46.3003 25.531 46.1267 26.0877 46.0602Z" fill="#C6161D"/>
<path d="M29.4235 45.791L30.6195 45.7917C30.4915 46.5904 30.3516 47.3865 30.1996 48.1807C31.2462 47.3702 32.8061 47.2704 32.7032 49.0055C32.6517 49.8721 32.3394 51.0076 32.1596 51.8801L30.9483 51.9062C31.0321 51.3039 31.147 50.7322 31.2633 50.1364C31.3622 49.7605 31.5142 49.3742 31.3464 48.9971C31.2061 48.6055 30.7358 48.5598 30.4533 48.8202C29.7402 49.4793 29.6032 50.975 29.4552 51.9029L28.2422 51.9114C28.6235 49.8689 29.0173 47.829 29.4235 45.791Z" fill="#C6161D"/>
<path d="M76.9162 47.7754L78.1819 47.778L78.6473 50.5011C79.0605 49.5686 79.5233 48.659 80.0344 47.7767L81.2896 47.7943C80.5924 48.9781 79.9267 50.2382 79.2563 51.4441C78.3385 53.193 78.0938 54.4283 75.8438 53.8599C75.9175 53.7026 75.9932 53.546 76.0703 53.39C76.3111 52.9117 76.5644 53.1036 77.0056 52.9398C77.3568 52.8093 77.6003 52.1939 77.7674 51.8539C77.488 50.4222 77.255 49.198 76.9162 47.7754Z" fill="#C6161D"/>
<path d="M63.6537 17.9863C64.6746 18.0333 65.5355 18.4954 65.9363 19.4928C66.0479 19.7715 66.0166 20.4697 65.7085 20.5728C64.4768 19.5514 63.247 20.5423 64.0532 21.8218C64.1719 21.9756 64.1896 21.95 64.217 22.121C63.5349 22.7575 61.7189 21.7863 61.5388 20.8057C61.2477 19.2209 62.061 18.2031 63.6537 17.9863Z" fill="#007A55"/>
<path d="M45.375 46.1967C45.739 46.1673 46.2557 46.1758 46.6326 46.1719C46.9232 46.7872 47.2567 47.8835 47.4669 48.5381C47.9303 47.9468 48.7085 46.8023 49.1065 46.1804L50.5495 46.1791C49.99 46.8975 49.4662 47.6532 48.9093 48.3802C47.6599 49.8686 47.884 50.0194 47.4648 51.8955L46.2332 51.9151C46.413 50.3613 46.9404 49.8915 46.1603 48.3084C45.9516 47.8848 45.4935 46.6567 45.375 46.1967Z" fill="#007A55"/>
<path d="M57.4144 47.7637L58.6311 47.7669L58.3472 49.2665C58.2297 50.1423 57.9738 50.986 57.8635 51.9068C57.5737 51.9153 57.2003 51.9322 56.9085 51.9264C56.6742 51.9218 56.8537 51.8024 56.7003 51.5727C56.28 51.6295 55.9333 51.9792 55.5613 52.0386C53.8792 52.3088 54.2793 50.3778 54.4608 49.3905C54.5417 48.9513 54.6168 48.1363 54.8263 47.8139L55.0548 47.7669L55.9927 47.7643C55.8746 48.4045 55.7016 49.0551 55.592 49.6972C55.3243 51.2634 55.9392 51.4095 56.9242 50.3185C57.1331 49.4753 57.2682 48.6198 57.4144 47.7637Z" fill="#007A55"/>
<path d="M6.08005 49.1812L14.4183 49.1708C15.052 49.1708 17.7392 49.129 18.2127 49.2112C18.3163 49.3972 18.2883 49.6674 18.2892 49.8905C15.578 49.9264 12.8133 49.8716 10.0965 49.8918C9.40981 49.8971 6.70158 49.9369 6.16366 49.852C6.04329 49.6732 6.07881 49.4089 6.08005 49.1812Z" fill="#C6161D"/>
<path d="M86.5402 49.1695L94.6237 49.1663C95.563 49.1656 97.8111 49.1069 98.6361 49.2061C98.738 49.3901 98.7112 49.6629 98.7125 49.8841L90.8757 49.89C89.8183 49.8906 87.5487 49.9526 86.6205 49.8528C86.5167 49.6701 86.5428 49.3901 86.5402 49.1695Z" fill="#C6161D"/>
<path d="M61.5858 47.6682C62.1413 47.6297 62.7947 47.7027 62.3743 48.5093C62.1087 49.0203 61.5532 48.7266 61.2275 48.8264C60.2314 49.1318 60.5173 51.0791 60.0721 51.838C60.0277 51.9118 59.8286 51.8994 59.7124 51.9092C59.4122 51.9196 59.3378 51.932 59.0512 51.8687C58.8756 51.6044 59.5852 48.3533 59.7059 47.7523C59.7875 47.7491 59.8691 47.7465 59.9507 47.7439C60.8867 47.7204 60.4265 47.8111 60.9761 48.063C61.1889 47.9337 61.3795 47.8065 61.5858 47.6682Z" fill="#007A55"/>
<path d="M81.0377 50.6197C81.4072 50.5446 81.7695 50.7743 81.8595 51.1398C81.949 51.5058 81.7342 51.8771 81.3719 51.9809C81.1252 52.052 80.8589 51.9822 80.6781 51.7988C80.4979 51.6155 80.432 51.3486 80.5071 51.1026C80.5821 50.8565 80.7858 50.6712 81.0377 50.6197Z" fill="#C6161D"/>
</svg>
