<svg width="38" height="38" viewBox="0 0 38 38" fill="none" xmlns="http://www.w3.org/2000/svg">
    <path d="M37.3343 18.9997C37.3343 29.3086 28.9765 37.6663 18.6667 37.6663H18.6317C8.33841 37.647 0 29.2948 0 18.9997C0 8.70454 8.33841 0.351407 18.6317 0.333008H18.6667C28.9765 0.333008 37.3343 8.68798 37.3343 18.9997Z" fill="#1D1D1D"/>
    <path d="M18.6317 0.333008V37.6663C8.33841 37.647 0 29.2948 0 18.9997C0 8.70454 8.33841 0.351407 18.6317 0.333008Z" fill="#1D1D1D"/>
    <path d="M28.824 13.832L28.801 17.6562C28.0558 17.6471 27.3144 17.5476 26.5932 17.36C25.4804 17.0693 24.4309 16.5756 23.4975 15.9037C23.4975 16.2947 23.5031 16.8779 23.5031 17.5872C23.5031 18.5311 23.5031 19.0674 23.4975 19.6369C23.481 23.1547 23.5684 23.8355 23.2593 25.2265C23.195 25.5619 23.107 25.8924 22.9962 26.2154C22.4019 27.8713 21.1066 29.1979 19.7865 29.9035C19.4181 30.0993 19.0314 30.2586 18.6319 30.3791C16.137 31.1353 13.1389 30.4711 11.5916 28.6312L11.5815 28.6202L11.5695 28.6045C10.2549 27.0185 9.96786 24.5457 9.94027 23.9128C9.94027 23.8318 9.93475 23.7527 9.93475 23.7527C9.91449 22.8881 10.0389 22.0262 10.3027 21.2026C10.5695 20.3507 11.4481 18.5725 13.4213 17.4925C14.652 16.8295 16.0567 16.5607 17.4452 16.7225L17.4001 20.5927C17.3219 20.5724 15.4314 20.1244 14.1904 21.4124C13.0662 22.5789 13.1389 24.4583 13.9365 25.5227C13.9788 25.5797 14.0239 25.6349 14.0708 25.6864C14.517 26.1841 15.0828 26.3709 15.4646 26.5015C15.9708 26.6683 16.5021 26.7461 17.0349 26.7315C17.6057 26.7226 18.1609 26.5442 18.6301 26.2191C19.9272 25.3378 20.102 23.7683 20.1085 23.6791C20.0925 18.6268 20.0775 13.5744 20.0634 8.52205V8.51745L22.4948 8.47421H22.5344L22.8867 8.46777C23.1465 9.40276 23.5869 10.2778 24.1829 11.0436C24.3707 11.2831 24.5735 11.5105 24.7901 11.7244C25.6083 12.5208 26.5912 13.1281 27.6695 13.5036H27.6769C28.0509 13.6403 28.4343 13.75 28.824 13.832Z" fill="#FD2854"/>
    <path d="M27.7248 15.5625H27.7174C26.408 15.7723 25.0676 15.6705 23.8049 15.2654C22.9232 14.9787 22.0955 14.5468 21.356 13.9876C21.7994 16.6679 21.7994 19.4028 21.356 22.0831C20.8307 25.233 20.5013 27.2072 18.7433 28.4703C18.7065 28.497 18.6688 28.5237 18.6311 28.5485C16.2034 30.1925 12.8115 29.3765 11.5687 28.6028L11.5503 28.5918L11.5153 28.5697C11.1056 28.2983 10.7214 27.9904 10.3672 27.6497C9.73233 27.0339 9.22571 26.2984 8.87661 25.4857C8.5275 24.673 8.34281 23.7992 8.3332 22.9148C8.30957 21.9987 8.46165 21.0865 8.78121 20.2276C8.9882 19.6756 9.75728 17.7125 11.8998 16.5175C13.2718 15.7652 14.8571 15.4969 16.4002 15.7557C16.3941 16.0624 16.3883 16.369 16.3827 16.6757V16.6821L16.3469 18.6232C15.6754 18.465 14.9812 18.4264 14.2963 18.5091C13.7443 18.5772 13.2034 18.6407 12.6284 19.0022C11.8921 19.4762 11.3709 20.22 11.1768 21.074C11.0539 21.4876 11.0287 21.924 11.1032 22.349C11.1252 22.4704 11.2871 23.314 11.9679 23.9194C12.197 24.1227 12.2945 24.1309 12.6284 24.4428C12.9228 24.7188 12.9964 24.8513 13.266 25.0803C13.266 25.0803 13.3322 25.1364 13.4407 25.2156C13.4477 25.2216 13.4551 25.2271 13.4628 25.2321C13.6113 25.3407 13.7671 25.4388 13.9292 25.5256C14.6036 25.8788 15.8105 25.9166 16.6955 25.4869C17.92 24.8917 18.5879 23.5229 18.5851 22.7096C18.5704 17.6554 18.5554 12.6015 18.54 7.54796H18.6247L22.3799 7.52588C22.3772 7.8188 22.4178 8.1105 22.5004 8.39155C22.5096 8.42191 22.5188 8.45043 22.5289 8.48354C22.539 8.51666 22.5455 8.5323 22.5538 8.5553C22.612 8.70818 22.6793 8.85748 22.7552 9.0024L22.8077 9.10819V9.11647C22.8068 9.11885 22.8068 9.12145 22.8077 9.12383L22.8159 9.14131L22.8242 9.15787C22.8292 9.16857 22.8347 9.17901 22.8408 9.18914C22.8463 9.2011 22.8527 9.21306 22.8592 9.22502C22.8941 9.29218 22.942 9.38049 22.9962 9.47985C23.0303 9.54148 23.0662 9.60312 23.103 9.66384L23.1425 9.72915C23.1618 9.76227 23.1821 9.79539 23.2023 9.82759L23.2759 9.94442C23.562 10.3961 24.0643 11.1569 24.7763 11.7319C25.7773 12.5396 26.9272 12.7677 27.6484 12.8358C27.653 13.0621 27.6585 13.2884 27.6631 13.5147C27.6901 14.198 27.7107 14.8806 27.7248 15.5625Z" fill="#24F6FA"/>
    <path d="M27.7364 16.6436C25.8408 16.7131 23.9797 16.1238 22.4697 14.9757V23.0713C22.4513 23.3813 22.1799 26.8007 19.0907 28.683C18.938 28.775 18.7844 28.8605 18.6308 28.9396C15.7246 30.4226 12.8848 29.2607 12.6042 29.1402C12.3252 29.049 12.0578 28.9255 11.8075 28.7722C11.7293 28.7234 11.653 28.6728 11.5803 28.6204L11.515 28.5716C9.61987 27.1328 9.54168 24.2019 9.52972 23.7695C9.50947 22.9049 9.63384 22.043 9.8977 21.2194C10.2105 20.2213 11.1442 18.5387 13.0163 17.5093C14.0493 16.9471 15.2102 16.6619 16.3861 16.6813V16.6878L16.3401 19.6049C16.1423 19.5516 14.9298 19.2461 13.7449 19.9922C13.0086 20.4662 12.4874 21.21 12.2932 22.0639C12.1771 22.4784 12.152 22.913 12.2196 23.3381C12.3247 23.8629 12.5723 24.3486 12.9354 24.7419C13.088 24.9177 13.2585 25.0771 13.4441 25.2175C13.4511 25.2235 13.4584 25.2291 13.4662 25.2341C13.6119 25.3465 13.7681 25.4448 13.9326 25.5275L13.9381 25.5321C14.2669 26.0285 14.7411 26.4112 15.2957 26.6276C15.8504 26.844 16.4584 26.8836 17.0365 26.7409C17.3058 26.6847 17.5674 26.5964 17.8157 26.4778C18.1164 26.3348 18.392 26.1441 18.6317 25.913C19.5627 25.0179 19.6988 23.7796 19.7053 23.7051L19.6648 8.5361L20.0696 8.52782L22.501 8.47998H22.5359C22.6073 8.65539 22.6843 8.82843 22.7668 8.99883L22.8193 9.10463V9.11291C22.8184 9.11529 22.8184 9.11788 22.8193 9.12026L22.8276 9.13774L22.8358 9.1543C22.8408 9.165 22.8464 9.17544 22.8524 9.18558C22.8579 9.19754 22.8644 9.2095 22.8708 9.22146C22.9131 9.30425 22.9628 9.38981 23.0079 9.47628C23.0419 9.53792 23.0778 9.59956 23.1146 9.66027L23.1541 9.72559L23.2139 9.82402L23.2875 9.94086C23.7083 10.599 24.2127 11.1998 24.788 11.7283C25.6275 12.497 26.6044 13.1006 27.6674 13.5075H27.6748C27.6867 14.1892 27.6987 14.8727 27.7097 15.5544L27.7364 16.6436Z" fill="white"/>
    <path d="M28.8239 13.8321L28.8009 17.6563C28.0557 17.6472 27.3143 17.5478 26.5931 17.3601C25.4803 17.0694 24.4308 16.5757 23.4974 15.9038C23.4974 16.2948 23.503 16.8781 23.503 17.5874C23.503 18.5312 23.503 19.0675 23.4974 19.637C23.4809 23.1549 23.5683 23.8356 23.2592 25.2266C23.1949 25.562 23.1069 25.8925 22.9961 26.2155C22.4018 27.8715 21.1065 29.198 19.7864 29.9036C19.418 30.0995 19.0313 30.2588 18.6318 30.3792V7.54796L22.3871 7.52588C22.3844 7.8188 22.425 8.1105 22.5076 8.39155C22.5168 8.42191 22.526 8.45043 22.5361 8.48354L22.8884 8.4771C23.1482 9.41209 23.5886 10.2872 24.1846 11.053C24.3724 11.2925 24.5752 11.5199 24.7918 11.7337C25.7927 12.5414 26.9426 12.7696 27.6639 12.8377C27.6685 13.064 27.674 13.2903 27.6786 13.5166C28.0524 13.6488 28.4352 13.7543 28.8239 13.8321Z" fill="black" fill-opacity="0.09"/>
</svg>
